<?xml version="1.0" encoding="utf-8"?>
<!-- Generator: Adobe Illustrator 27.9.0, SVG Export Plug-In . SVG Version: 6.00 Build 0)  -->
<svg version="1.1" id="Layer_1" xmlns="http://www.w3.org/2000/svg" xmlns:xlink="http://www.w3.org/1999/xlink" x="0px" y="0px"
	 viewBox="0 0 24 24" style="enable-background:new 0 0 24 24;" xml:space="preserve">
<style type="text/css">
	.st0{fill:#282828;}
</style>
<path class="st0" d="M12.5,3.2c-0.3-0.2-0.7-0.2-1,0L4,7.6V20h4.5v-6c0-0.6,0.4-1,1-1h5c0.6,0,1,0.4,1,1v6H20V7.6
	C20,7.6,12.5,3.2,12.5,3.2z M10.5,1.5c0.9-0.5,2.1-0.5,3,0L21,5.8c0.6,0.4,1,1,1,1.7V21c0,0.6-0.4,1-1,1h-6.5c-0.6,0-1-0.4-1-1v-6
	h-3v6c0,0.6-0.4,1-1,1H3c-0.6,0-1-0.4-1-1V7.6c0-0.7,0.4-1.4,1-1.7C3,5.8,10.5,1.5,10.5,1.5z"/>
</svg>
