<?xml version="1.0" encoding="utf-8"?>
<!-- Generator: Adobe Illustrator 27.9.0, SVG Export Plug-In . SVG Version: 6.00 Build 0)  -->
<svg version="1.1" id="Layer_1" xmlns="http://www.w3.org/2000/svg" xmlns:xlink="http://www.w3.org/1999/xlink" x="0px" y="0px"
	 viewBox="0 0 24 24" style="enable-background:new 0 0 24 24;" xml:space="preserve">
<style type="text/css">
	.st0{fill:#FFFFFF;}
</style>
<path class="st0" d="M15.4,10.6c0,2.6-2.2,4.8-4.8,4.8c-2.7,0-4.8-2.1-4.8-4.8s2.2-4.8,4.8-4.8S15.4,7.9,15.4,10.6z"/>
<path class="st0" d="M1.1,10.6c0-5.1,4.2-9.3,9.4-9.3c5.2,0,9.4,4.1,9.4,9.3c0,2.1-0.7,4.2-2.1,5.8l4.3,4.3c0.4,0.4,0.4,1,0,1.4
	c-0.4,0.4-1,0.4-1.4,0l-4.4-4.4c-1.7,1.3-3.8,2.1-5.9,2.1C5.4,19.8,1.1,15.7,1.1,10.6L1.1,10.6z M10.5,3.3c-4.1,0-7.4,3.3-7.4,7.3
	s3.3,7.3,7.4,7.3s7.4-3.3,7.4-7.3C17.9,6.6,14.6,3.3,10.5,3.3L10.5,3.3z"/>
</svg>
