<?xml version="1.0" encoding="utf-8"?>
<!-- Generator: Adobe Illustrator 27.9.0, SVG Export Plug-In . SVG Version: 6.00 Build 0)  -->
<svg version="1.1" id="Layer_1" xmlns="http://www.w3.org/2000/svg" xmlns:xlink="http://www.w3.org/1999/xlink" x="0px" y="0px"
	 viewBox="0 0 24 24" style="enable-background:new 0 0 24 24;" xml:space="preserve">
<style type="text/css">
	.st0{fill:#787878;}
</style>
<path class="st0" d="M10.5,1.3c-5.2,0-9.4,4.1-9.4,9.3s4.2,9.3,9.4,9.3c2.2,0,4.3-0.8,5.9-2.1l4.4,4.4c0.4,0.4,1,0.4,1.4,0
	c0.4-0.4,0.4-1,0-1.4c0,0,0,0,0,0l-4.3-4.3c1.3-1.6,2.1-3.7,2.1-5.8C19.9,5.4,15.7,1.3,10.5,1.3L10.5,1.3z M3.1,10.6
	c0-4,3.3-7.3,7.4-7.3s7.4,3.3,7.4,7.3s-3.3,7.3-7.4,7.3S3.1,14.6,3.1,10.6L3.1,10.6z"/>
</svg>
